<?xml version="1.0" encoding="UTF-8" standalone="no"?>
<!DOCTYPE svg PUBLIC "-//W3C//DTD SVG 1.1//EN"
 "http://www.w3.org/Graphics/SVG/1.1/DTD/svg11.dtd">
<!-- Generated by graphviz version 11.0.0 (20240428.1522)
 -->
<!-- Pages: 1 -->
<svg width="266pt" height="397pt"
 viewBox="0.00 0.00 266.00 397.45" xmlns="http://www.w3.org/2000/svg" xmlns:xlink="http://www.w3.org/1999/xlink">
<g id="graph0" class="graph" transform="scale(1 1) rotate(0) translate(4 393.45)">
<polygon fill="white" stroke="none" points="-4,4 -4,-393.45 262,-393.45 262,4 -4,4"/>
<g id="clust1" class="cluster">
<title>cluster9</title>
<path fill="none" stroke="black" d="M154,-129.82C154,-129.82 238,-129.82 238,-129.82 244,-129.82 250,-135.82 250,-141.82 250,-141.82 250,-239.63 250,-239.63 250,-245.63 244,-251.63 238,-251.63 238,-251.63 154,-251.63 154,-251.63 148,-251.63 142,-245.63 142,-239.63 142,-239.63 142,-141.82 142,-141.82 142,-135.82 148,-129.82 154,-129.82"/>
<text text-anchor="middle" x="238.62" y="-137.02" font-family="Times,serif" font-size="14.00">9</text>
</g>
<g id="clust2" class="cluster">
<title>cluster3</title>
<path fill="none" stroke="black" d="M38,-259.63C38,-259.63 112,-259.63 112,-259.63 118,-259.63 124,-265.63 124,-271.63 124,-271.63 124,-369.45 124,-369.45 124,-375.45 118,-381.45 112,-381.45 112,-381.45 38,-381.45 38,-381.45 32,-381.45 26,-375.45 26,-369.45 26,-369.45 26,-271.63 26,-271.63 26,-265.63 32,-259.63 38,-259.63"/>
<text text-anchor="middle" x="112.62" y="-266.83" font-family="Times,serif" font-size="14.00">3</text>
</g>
<g id="clust3" class="cluster">
<title>cluster500</title>
<path fill="none" stroke="black" d="M20,-8C20,-8 122,-8 122,-8 128,-8 134,-14 134,-20 134,-20 134,-227.73 134,-227.73 134,-233.73 128,-239.73 122,-239.73 122,-239.73 20,-239.73 20,-239.73 14,-239.73 8,-233.73 8,-227.73 8,-227.73 8,-20 8,-20 8,-14 14,-8 20,-8"/>
<text text-anchor="middle" x="115.88" y="-15.2" font-family="Times,serif" font-size="14.00">500</text>
</g>
<g id="clust4" class="cluster">
<title>cluster500 x 10</title>
<path fill="none" stroke="black" d="M154,-19.91C154,-19.91 236,-19.91 236,-19.91 242,-19.91 248,-25.91 248,-31.91 248,-31.91 248,-105.91 248,-105.91 248,-111.91 242,-117.91 236,-117.91 236,-117.91 154,-117.91 154,-117.91 148,-117.91 142,-111.91 142,-105.91 142,-105.91 142,-31.91 142,-31.91 142,-25.91 148,-19.91 154,-19.91"/>
<text text-anchor="middle" x="216" y="-27.11" font-family="Times,serif" font-size="14.00">500 x 10</text>
</g>
<!-- sigma -->
<g id="node1" class="node">
<title>sigma</title>
<ellipse fill="none" stroke="black" cx="196" cy="-332.79" rx="57.45" ry="40.66"/>
<text text-anchor="middle" x="196" y="-344.24" font-family="Times,serif" font-size="14.00">sigma</text>
<text text-anchor="middle" x="196" y="-327.74" font-family="Times,serif" font-size="14.00">~</text>
<text text-anchor="middle" x="196" y="-311.24" font-family="Times,serif" font-size="14.00">Exponential</text>
</g>
<!-- cutpoints -->
<g id="node2" class="node">
<title>cutpoints</title>
<ellipse fill="none" stroke="black" cx="196" cy="-202.98" rx="46.32" ry="40.66"/>
<text text-anchor="middle" x="196" y="-214.43" font-family="Times,serif" font-size="14.00">cutpoints</text>
<text text-anchor="middle" x="196" y="-197.93" font-family="Times,serif" font-size="14.00">~</text>
<text text-anchor="middle" x="196" y="-181.43" font-family="Times,serif" font-size="14.00">Normal</text>
</g>
<!-- sigma&#45;&gt;cutpoints -->
<g id="edge1" class="edge">
<title>sigma&#45;&gt;cutpoints</title>
<path fill="none" stroke="black" d="M196,-291.7C196,-280.16 196,-267.41 196,-255.29"/>
<polygon fill="black" stroke="black" points="199.5,-255.44 196,-245.44 192.5,-255.44 199.5,-255.44"/>
</g>
<!-- y -->
<g id="node5" class="node">
<title>y</title>
<ellipse fill="lightgrey" stroke="black" cx="71" cy="-81.16" rx="55.33" ry="40.66"/>
<text text-anchor="middle" x="71" y="-92.61" font-family="Times,serif" font-size="14.00">y</text>
<text text-anchor="middle" x="71" y="-76.11" font-family="Times,serif" font-size="14.00">~</text>
<text text-anchor="middle" x="71" y="-59.61" font-family="Times,serif" font-size="14.00">Categorical</text>
</g>
<!-- cutpoints&#45;&gt;y -->
<g id="edge4" class="edge">
<title>cutpoints&#45;&gt;y</title>
<path fill="none" stroke="black" d="M171.8,-168C162.01,-155.34 150.16,-141.28 138,-129.82 132.7,-124.82 126.84,-119.92 120.87,-115.27"/>
<polygon fill="black" stroke="black" points="123.39,-112.79 113.29,-109.58 119.19,-118.39 123.39,-112.79"/>
</g>
<!-- y_probs -->
<g id="node6" class="node">
<title>y_probs</title>
<polygon fill="none" stroke="black" points="240.12,-109.91 149.88,-109.91 149.88,-52.41 240.12,-52.41 240.12,-109.91"/>
<text text-anchor="middle" x="195" y="-92.61" font-family="Times,serif" font-size="14.00">y_probs</text>
<text text-anchor="middle" x="195" y="-76.11" font-family="Times,serif" font-size="14.00">~</text>
<text text-anchor="middle" x="195" y="-59.61" font-family="Times,serif" font-size="14.00">Deterministic</text>
</g>
<!-- cutpoints&#45;&gt;y_probs -->
<g id="edge6" class="edge">
<title>cutpoints&#45;&gt;y_probs</title>
<path fill="none" stroke="black" d="M195.67,-162.08C195.56,-149.05 195.44,-134.59 195.33,-121.6"/>
<polygon fill="black" stroke="black" points="198.83,-121.64 195.25,-111.67 191.83,-121.7 198.83,-121.64"/>
</g>
<!-- beta -->
<g id="node3" class="node">
<title>beta</title>
<ellipse fill="none" stroke="black" cx="75" cy="-332.79" rx="41.01" ry="40.66"/>
<text text-anchor="middle" x="75" y="-344.24" font-family="Times,serif" font-size="14.00">beta</text>
<text text-anchor="middle" x="75" y="-327.74" font-family="Times,serif" font-size="14.00">~</text>
<text text-anchor="middle" x="75" y="-311.24" font-family="Times,serif" font-size="14.00">Normal</text>
</g>
<!-- mu -->
<g id="node4" class="node">
<title>mu</title>
<polygon fill="none" stroke="black" points="120.12,-231.73 29.88,-231.73 29.88,-174.23 120.12,-174.23 120.12,-231.73"/>
<text text-anchor="middle" x="75" y="-214.43" font-family="Times,serif" font-size="14.00">mu</text>
<text text-anchor="middle" x="75" y="-197.93" font-family="Times,serif" font-size="14.00">~</text>
<text text-anchor="middle" x="75" y="-181.43" font-family="Times,serif" font-size="14.00">Deterministic</text>
</g>
<!-- beta&#45;&gt;mu -->
<g id="edge2" class="edge">
<title>beta&#45;&gt;mu</title>
<path fill="none" stroke="black" d="M75,-291.7C75,-276.3 75,-258.74 75,-243.4"/>
<polygon fill="black" stroke="black" points="78.5,-243.69 75,-233.69 71.5,-243.69 78.5,-243.69"/>
</g>
<!-- mu&#45;&gt;y -->
<g id="edge3" class="edge">
<title>mu&#45;&gt;y</title>
<path fill="none" stroke="black" d="M74.06,-173.88C73.66,-161.78 73.17,-147.23 72.71,-133.33"/>
<polygon fill="black" stroke="black" points="76.21,-133.26 72.38,-123.38 69.21,-133.49 76.21,-133.26"/>
</g>
<!-- mu&#45;&gt;y_probs -->
<g id="edge5" class="edge">
<title>mu&#45;&gt;y_probs</title>
<path fill="none" stroke="black" d="M97.67,-173.99C109.25,-160.23 123.86,-143.66 138,-129.82 142.1,-125.8 146.5,-121.75 150.96,-117.78"/>
<polygon fill="black" stroke="black" points="153.18,-120.49 158.43,-111.3 148.59,-115.21 153.18,-120.49"/>
</g>
</g>
</svg>
