<?xml version="1.0" encoding="UTF-8" standalone="no"?>
<!DOCTYPE svg PUBLIC "-//W3C//DTD SVG 1.1//EN"
 "http://www.w3.org/Graphics/SVG/1.1/DTD/svg11.dtd">
<!-- Generated by graphviz version 11.0.0 (20240428.1522)
 -->
<!-- Pages: 1 -->
<svg width="1005pt" height="511pt"
 viewBox="0.00 0.00 1005.00 511.45" xmlns="http://www.w3.org/2000/svg" xmlns:xlink="http://www.w3.org/1999/xlink">
<g id="graph0" class="graph" transform="scale(1 1) rotate(0) translate(4 507.45)">
<polygon fill="white" stroke="none" points="-4,4 -4,-507.45 1001,-507.45 1001,4 -4,4"/>
<g id="clust1" class="cluster">
<title>cluster900</title>
<path fill="none" stroke="black" d="M20,-255.73C20,-255.73 282,-255.73 282,-255.73 288,-255.73 294,-261.73 294,-267.73 294,-267.73 294,-341.73 294,-341.73 294,-347.73 288,-353.73 282,-353.73 282,-353.73 20,-353.73 20,-353.73 14,-353.73 8,-347.73 8,-341.73 8,-341.73 8,-267.73 8,-267.73 8,-261.73 14,-255.73 20,-255.73"/>
<text text-anchor="middle" x="275.88" y="-262.93" font-family="Times,serif" font-size="14.00">900</text>
</g>
<g id="clust2" class="cluster">
<title>clusteralts_intercepts (4)</title>
<path fill="none" stroke="black" d="M508,-243.82C508,-243.82 749,-243.82 749,-243.82 755,-243.82 761,-249.82 761,-255.82 761,-255.82 761,-353.63 761,-353.63 761,-359.63 755,-365.63 749,-365.63 749,-365.63 508,-365.63 508,-365.63 502,-365.63 496,-359.63 496,-353.63 496,-353.63 496,-255.82 496,-255.82 496,-249.82 502,-243.82 508,-243.82"/>
<text text-anchor="middle" x="704.25" y="-251.02" font-family="Times,serif" font-size="14.00">alts_intercepts (4)</text>
</g>
<g id="clust3" class="cluster">
<title>cluster10</title>
<path fill="none" stroke="black" d="M742,-373.63C742,-373.63 902,-373.63 902,-373.63 908,-373.63 914,-379.63 914,-385.63 914,-385.63 914,-483.45 914,-483.45 914,-489.45 908,-495.45 902,-495.45 902,-495.45 742,-495.45 742,-495.45 736,-495.45 730,-489.45 730,-483.45 730,-483.45 730,-385.63 730,-385.63 730,-379.63 736,-373.63 742,-373.63"/>
<text text-anchor="middle" x="899.25" y="-380.83" font-family="Times,serif" font-size="14.00">10</text>
</g>
<g id="clust4" class="cluster">
<title>cluster4 x 4</title>
<path fill="none" stroke="black" d="M781,-255.73C781,-255.73 863,-255.73 863,-255.73 869,-255.73 875,-261.73 875,-267.73 875,-267.73 875,-341.73 875,-341.73 875,-347.73 869,-353.73 863,-353.73 863,-353.73 781,-353.73 781,-353.73 775,-353.73 769,-347.73 769,-341.73 769,-341.73 769,-267.73 769,-267.73 769,-261.73 775,-255.73 781,-255.73"/>
<text text-anchor="middle" x="853.12" y="-262.93" font-family="Times,serif" font-size="14.00">4 x 4</text>
</g>
<g id="clust5" class="cluster">
<title>cluster4</title>
<path fill="none" stroke="black" d="M895,-255.73C895,-255.73 977,-255.73 977,-255.73 983,-255.73 989,-261.73 989,-267.73 989,-267.73 989,-341.73 989,-341.73 989,-347.73 983,-353.73 977,-353.73 977,-353.73 895,-353.73 895,-353.73 889,-353.73 883,-347.73 883,-341.73 883,-341.73 883,-267.73 883,-267.73 883,-261.73 889,-255.73 895,-255.73"/>
<text text-anchor="middle" x="977.62" y="-262.93" font-family="Times,serif" font-size="14.00">4</text>
</g>
<g id="clust6" class="cluster">
<title>clusterobs (900) x alts_probs (5)</title>
<path fill="none" stroke="black" d="M236,-137.82C236,-137.82 369,-137.82 369,-137.82 375,-137.82 381,-143.82 381,-149.82 381,-149.82 381,-223.82 381,-223.82 381,-229.82 375,-235.82 369,-235.82 369,-235.82 236,-235.82 236,-235.82 230,-235.82 224,-229.82 224,-223.82 224,-223.82 224,-149.82 224,-149.82 224,-143.82 230,-137.82 236,-137.82"/>
<text text-anchor="middle" x="302.5" y="-145.02" font-family="Times,serif" font-size="14.00">obs (900) x alts_probs (5)</text>
</g>
<g id="clust7" class="cluster">
<title>clusterobs (900)</title>
<path fill="none" stroke="black" d="M251,-8C251,-8 353,-8 353,-8 359,-8 365,-14 365,-20 365,-20 365,-117.82 365,-117.82 365,-123.82 359,-129.82 353,-129.82 353,-129.82 251,-129.82 251,-129.82 245,-129.82 239,-123.82 239,-117.82 239,-117.82 239,-20 239,-20 239,-14 245,-8 251,-8"/>
<text text-anchor="middle" x="331.12" y="-15.2" font-family="Times,serif" font-size="14.00">obs (900)</text>
</g>
<!-- ic_er -->
<g id="node1" class="node">
<title>ic_er</title>
<path fill="lightgrey" stroke="black" d="M58,-345.73C58,-345.73 28,-345.73 28,-345.73 22,-345.73 16,-339.73 16,-333.73 16,-333.73 16,-300.23 16,-300.23 16,-294.23 22,-288.23 28,-288.23 28,-288.23 58,-288.23 58,-288.23 64,-288.23 70,-294.23 70,-300.23 70,-300.23 70,-333.73 70,-333.73 70,-339.73 64,-345.73 58,-345.73"/>
<text text-anchor="middle" x="43" y="-328.43" font-family="Times,serif" font-size="14.00">ic_er</text>
<text text-anchor="middle" x="43" y="-311.93" font-family="Times,serif" font-size="14.00">~</text>
<text text-anchor="middle" x="43" y="-295.43" font-family="Times,serif" font-size="14.00">Data</text>
</g>
<!-- p -->
<g id="node12" class="node">
<title>p</title>
<polygon fill="none" stroke="black" points="347.12,-227.82 256.88,-227.82 256.88,-170.32 347.12,-170.32 347.12,-227.82"/>
<text text-anchor="middle" x="302" y="-210.52" font-family="Times,serif" font-size="14.00">p</text>
<text text-anchor="middle" x="302" y="-194.02" font-family="Times,serif" font-size="14.00">~</text>
<text text-anchor="middle" x="302" y="-177.52" font-family="Times,serif" font-size="14.00">Deterministic</text>
</g>
<!-- ic_er&#45;&gt;p -->
<g id="edge6" class="edge">
<title>ic_er&#45;&gt;p</title>
<path fill="none" stroke="black" d="M50.31,-288.04C55.74,-272.71 64.74,-254.67 79,-243.82 104.55,-224.36 187.77,-211.96 244.99,-205.51"/>
<polygon fill="black" stroke="black" points="245.36,-208.99 254.92,-204.42 244.6,-202.03 245.36,-208.99"/>
</g>
<!-- oc_er -->
<g id="node2" class="node">
<title>oc_er</title>
<path fill="lightgrey" stroke="black" d="M130,-345.73C130,-345.73 100,-345.73 100,-345.73 94,-345.73 88,-339.73 88,-333.73 88,-333.73 88,-300.23 88,-300.23 88,-294.23 94,-288.23 100,-288.23 100,-288.23 130,-288.23 130,-288.23 136,-288.23 142,-294.23 142,-300.23 142,-300.23 142,-333.73 142,-333.73 142,-339.73 136,-345.73 130,-345.73"/>
<text text-anchor="middle" x="115" y="-328.43" font-family="Times,serif" font-size="14.00">oc_er</text>
<text text-anchor="middle" x="115" y="-311.93" font-family="Times,serif" font-size="14.00">~</text>
<text text-anchor="middle" x="115" y="-295.43" font-family="Times,serif" font-size="14.00">Data</text>
</g>
<!-- oc_er&#45;&gt;p -->
<g id="edge4" class="edge">
<title>oc_er&#45;&gt;p</title>
<path fill="none" stroke="black" d="M122.94,-287.79C128.52,-272.77 137.45,-255.11 151,-243.82 177.51,-221.71 214.68,-210.77 245.51,-205.36"/>
<polygon fill="black" stroke="black" points="245.72,-208.87 255.05,-203.84 244.63,-201.95 245.72,-208.87"/>
</g>
<!-- ic_ec -->
<g id="node3" class="node">
<title>ic_ec</title>
<path fill="lightgrey" stroke="black" d="M202,-345.73C202,-345.73 172,-345.73 172,-345.73 166,-345.73 160,-339.73 160,-333.73 160,-333.73 160,-300.23 160,-300.23 160,-294.23 166,-288.23 172,-288.23 172,-288.23 202,-288.23 202,-288.23 208,-288.23 214,-294.23 214,-300.23 214,-300.23 214,-333.73 214,-333.73 214,-339.73 208,-345.73 202,-345.73"/>
<text text-anchor="middle" x="187" y="-328.43" font-family="Times,serif" font-size="14.00">ic_ec</text>
<text text-anchor="middle" x="187" y="-311.93" font-family="Times,serif" font-size="14.00">~</text>
<text text-anchor="middle" x="187" y="-295.43" font-family="Times,serif" font-size="14.00">Data</text>
</g>
<!-- ic_ec&#45;&gt;p -->
<g id="edge9" class="edge">
<title>ic_ec&#45;&gt;p</title>
<path fill="none" stroke="black" d="M196.41,-287.85C202.31,-273.4 211.09,-256.25 223,-243.82 229.86,-236.66 238.14,-230.37 246.73,-224.96"/>
<polygon fill="black" stroke="black" points="248.35,-228.07 255.2,-219.98 244.81,-222.03 248.35,-228.07"/>
</g>
<!-- oc_ec -->
<g id="node4" class="node">
<title>oc_ec</title>
<path fill="lightgrey" stroke="black" d="M274,-345.73C274,-345.73 244,-345.73 244,-345.73 238,-345.73 232,-339.73 232,-333.73 232,-333.73 232,-300.23 232,-300.23 232,-294.23 238,-288.23 244,-288.23 244,-288.23 274,-288.23 274,-288.23 280,-288.23 286,-294.23 286,-300.23 286,-300.23 286,-333.73 286,-333.73 286,-339.73 280,-345.73 274,-345.73"/>
<text text-anchor="middle" x="259" y="-328.43" font-family="Times,serif" font-size="14.00">oc_ec</text>
<text text-anchor="middle" x="259" y="-311.93" font-family="Times,serif" font-size="14.00">~</text>
<text text-anchor="middle" x="259" y="-295.43" font-family="Times,serif" font-size="14.00">Data</text>
</g>
<!-- oc_ec&#45;&gt;p -->
<g id="edge11" class="edge">
<title>oc_ec&#45;&gt;p</title>
<path fill="none" stroke="black" d="M269.41,-287.92C274.86,-273.22 281.63,-254.99 287.57,-238.95"/>
<polygon fill="black" stroke="black" points="290.81,-240.28 291.01,-229.69 284.25,-237.85 290.81,-240.28"/>
</g>
<!-- beta_oc -->
<g id="node5" class="node">
<title>beta_oc</title>
<ellipse fill="none" stroke="black" cx="345" cy="-316.98" rx="41.01" ry="40.66"/>
<text text-anchor="middle" x="345" y="-328.43" font-family="Times,serif" font-size="14.00">beta_oc</text>
<text text-anchor="middle" x="345" y="-311.93" font-family="Times,serif" font-size="14.00">~</text>
<text text-anchor="middle" x="345" y="-295.43" font-family="Times,serif" font-size="14.00">Normal</text>
</g>
<!-- beta_oc&#45;&gt;p -->
<g id="edge7" class="edge">
<title>beta_oc&#45;&gt;p</title>
<path fill="none" stroke="black" d="M331.04,-278.34C326.34,-265.66 321.08,-251.5 316.35,-238.74"/>
<polygon fill="black" stroke="black" points="319.64,-237.54 312.88,-229.38 313.07,-239.98 319.64,-237.54"/>
</g>
<!-- beta_ic -->
<g id="node6" class="node">
<title>beta_ic</title>
<ellipse fill="none" stroke="black" cx="445" cy="-316.98" rx="41.01" ry="40.66"/>
<text text-anchor="middle" x="445" y="-328.43" font-family="Times,serif" font-size="14.00">beta_ic</text>
<text text-anchor="middle" x="445" y="-311.93" font-family="Times,serif" font-size="14.00">~</text>
<text text-anchor="middle" x="445" y="-295.43" font-family="Times,serif" font-size="14.00">Normal</text>
</g>
<!-- beta_ic&#45;&gt;p -->
<g id="edge5" class="edge">
<title>beta_ic&#45;&gt;p</title>
<path fill="none" stroke="black" d="M425.85,-280.7C417.62,-267.88 407.1,-254.06 395,-243.82 384.04,-234.54 370.78,-226.77 357.74,-220.48"/>
<polygon fill="black" stroke="black" points="359.32,-217.35 348.77,-216.38 356.41,-223.72 359.32,-217.35"/>
</g>
<!-- beta_income -->
<g id="node7" class="node">
<title>beta_income</title>
<ellipse fill="none" stroke="black" cx="565" cy="-316.98" rx="60.63" ry="40.66"/>
<text text-anchor="middle" x="565" y="-328.43" font-family="Times,serif" font-size="14.00">beta_income</text>
<text text-anchor="middle" x="565" y="-311.93" font-family="Times,serif" font-size="14.00">~</text>
<text text-anchor="middle" x="565" y="-295.43" font-family="Times,serif" font-size="14.00">Normal</text>
</g>
<!-- beta_income&#45;&gt;p -->
<g id="edge8" class="edge">
<title>beta_income&#45;&gt;p</title>
<path fill="none" stroke="black" d="M538.01,-280.39C526.18,-267.07 511.28,-252.96 495,-243.82 452.92,-220.18 398.92,-209.31 358.74,-204.32"/>
<polygon fill="black" stroke="black" points="359.37,-200.87 349.04,-203.2 358.57,-207.82 359.37,-200.87"/>
</g>
<!-- alpha -->
<g id="node8" class="node">
<title>alpha</title>
<ellipse fill="none" stroke="black" cx="698" cy="-316.98" rx="54.8" ry="40.66"/>
<text text-anchor="middle" x="698" y="-328.43" font-family="Times,serif" font-size="14.00">alpha</text>
<text text-anchor="middle" x="698" y="-311.93" font-family="Times,serif" font-size="14.00">~</text>
<text text-anchor="middle" x="698" y="-295.43" font-family="Times,serif" font-size="14.00">MvNormal</text>
</g>
<!-- alpha&#45;&gt;p -->
<g id="edge10" class="edge">
<title>alpha&#45;&gt;p</title>
<path fill="none" stroke="black" d="M674.76,-279.64C664.26,-266.21 650.69,-252.22 635,-243.82 588.47,-218.89 441.21,-207.34 358.97,-202.71"/>
<polygon fill="black" stroke="black" points="359.25,-199.22 349.08,-202.17 358.87,-206.21 359.25,-199.22"/>
</g>
<!-- chol -->
<g id="node9" class="node">
<title>chol</title>
<ellipse fill="none" stroke="black" cx="822" cy="-446.79" rx="84.5" ry="40.66"/>
<text text-anchor="middle" x="822" y="-458.24" font-family="Times,serif" font-size="14.00">chol</text>
<text text-anchor="middle" x="822" y="-441.74" font-family="Times,serif" font-size="14.00">~</text>
<text text-anchor="middle" x="822" y="-425.24" font-family="Times,serif" font-size="14.00">_LKJCholeskyCov</text>
</g>
<!-- chol&#45;&gt;alpha -->
<g id="edge3" class="edge">
<title>chol&#45;&gt;alpha</title>
<path fill="none" stroke="black" d="M786.8,-409.51C771.29,-393.52 753.02,-374.69 737.09,-358.27"/>
<polygon fill="black" stroke="black" points="740.01,-356.25 730.53,-351.51 734.99,-361.13 740.01,-356.25"/>
</g>
<!-- chol_corr -->
<g id="node10" class="node">
<title>chol_corr</title>
<polygon fill="none" stroke="black" points="867.12,-345.73 776.88,-345.73 776.88,-288.23 867.12,-288.23 867.12,-345.73"/>
<text text-anchor="middle" x="822" y="-328.43" font-family="Times,serif" font-size="14.00">chol_corr</text>
<text text-anchor="middle" x="822" y="-311.93" font-family="Times,serif" font-size="14.00">~</text>
<text text-anchor="middle" x="822" y="-295.43" font-family="Times,serif" font-size="14.00">Deterministic</text>
</g>
<!-- chol&#45;&gt;chol_corr -->
<g id="edge1" class="edge">
<title>chol&#45;&gt;chol_corr</title>
<path fill="none" stroke="black" d="M822,-405.7C822,-390.3 822,-372.74 822,-357.4"/>
<polygon fill="black" stroke="black" points="825.5,-357.69 822,-347.69 818.5,-357.69 825.5,-357.69"/>
</g>
<!-- chol_stds -->
<g id="node11" class="node">
<title>chol_stds</title>
<polygon fill="none" stroke="black" points="981.12,-345.73 890.88,-345.73 890.88,-288.23 981.12,-288.23 981.12,-345.73"/>
<text text-anchor="middle" x="936" y="-328.43" font-family="Times,serif" font-size="14.00">chol_stds</text>
<text text-anchor="middle" x="936" y="-311.93" font-family="Times,serif" font-size="14.00">~</text>
<text text-anchor="middle" x="936" y="-295.43" font-family="Times,serif" font-size="14.00">Deterministic</text>
</g>
<!-- chol&#45;&gt;chol_stds -->
<g id="edge2" class="edge">
<title>chol&#45;&gt;chol_stds</title>
<path fill="none" stroke="black" d="M854.67,-409.17C870.05,-391.92 888.34,-371.42 903.67,-354.22"/>
<polygon fill="black" stroke="black" points="905.89,-357 909.93,-347.2 900.66,-352.34 905.89,-357"/>
</g>
<!-- y_cat -->
<g id="node13" class="node">
<title>y_cat</title>
<ellipse fill="lightgrey" stroke="black" cx="302" cy="-81.16" rx="55.33" ry="40.66"/>
<text text-anchor="middle" x="302" y="-92.61" font-family="Times,serif" font-size="14.00">y_cat</text>
<text text-anchor="middle" x="302" y="-76.11" font-family="Times,serif" font-size="14.00">~</text>
<text text-anchor="middle" x="302" y="-59.61" font-family="Times,serif" font-size="14.00">Categorical</text>
</g>
<!-- p&#45;&gt;y_cat -->
<g id="edge12" class="edge">
<title>p&#45;&gt;y_cat</title>
<path fill="none" stroke="black" d="M302,-170.01C302,-159.03 302,-146.08 302,-133.55"/>
<polygon fill="black" stroke="black" points="305.5,-133.74 302,-123.74 298.5,-133.74 305.5,-133.74"/>
</g>
</g>
</svg>
