<?xml version="1.0" encoding="UTF-8" standalone="no"?>
<!DOCTYPE svg PUBLIC "-//W3C//DTD SVG 1.1//EN"
 "http://www.w3.org/Graphics/SVG/1.1/DTD/svg11.dtd">
<!-- Generated by graphviz version 11.0.0 (20240428.1522)
 -->
<!-- Pages: 1 -->
<svg width="206pt" height="353pt"
 viewBox="0.00 0.00 206.01 353.13" xmlns="http://www.w3.org/2000/svg" xmlns:xlink="http://www.w3.org/1999/xlink">
<g id="graph0" class="graph" transform="scale(1 1) rotate(0) translate(4 349.13)">
<polygon fill="white" stroke="none" points="-4,4 -4,-349.13 202.01,-349.13 202.01,4 -4,4"/>
<g id="clust1" class="cluster">
<title>clusterobs (900) x alts_probs (5)</title>
<path fill="none" stroke="black" d="M45.01,-137.82C45.01,-137.82 178.01,-137.82 178.01,-137.82 184.01,-137.82 190.01,-143.82 190.01,-149.82 190.01,-149.82 190.01,-223.82 190.01,-223.82 190.01,-229.82 184.01,-235.82 178.01,-235.82 178.01,-235.82 45.01,-235.82 45.01,-235.82 39.01,-235.82 33.01,-229.82 33.01,-223.82 33.01,-223.82 33.01,-149.82 33.01,-149.82 33.01,-143.82 39.01,-137.82 45.01,-137.82"/>
<text text-anchor="middle" x="111.51" y="-145.02" font-family="Times,serif" font-size="14.00">obs (900) x alts_probs (5)</text>
</g>
<g id="clust2" class="cluster">
<title>clusterobs (900)</title>
<path fill="none" stroke="black" d="M40.01,-8C40.01,-8 142.01,-8 142.01,-8 148.01,-8 154.01,-14 154.01,-20 154.01,-20 154.01,-117.82 154.01,-117.82 154.01,-123.82 148.01,-129.82 142.01,-129.82 142.01,-129.82 40.01,-129.82 40.01,-129.82 34.01,-129.82 28.01,-123.82 28.01,-117.82 28.01,-117.82 28.01,-20 28.01,-20 28.01,-14 34.01,-8 40.01,-8"/>
<text text-anchor="middle" x="120.14" y="-15.2" font-family="Times,serif" font-size="14.00">obs (900)</text>
</g>
<!-- beta_oc -->
<g id="node1" class="node">
<title>beta_oc</title>
<ellipse fill="none" stroke="black" cx="41.01" cy="-304.48" rx="41.01" ry="40.66"/>
<text text-anchor="middle" x="41.01" y="-315.93" font-family="Times,serif" font-size="14.00">beta_oc</text>
<text text-anchor="middle" x="41.01" y="-299.43" font-family="Times,serif" font-size="14.00">~</text>
<text text-anchor="middle" x="41.01" y="-282.93" font-family="Times,serif" font-size="14.00">Normal</text>
</g>
<!-- p -->
<g id="node3" class="node">
<title>p</title>
<polygon fill="none" stroke="black" points="136.14,-227.82 45.89,-227.82 45.89,-170.32 136.14,-170.32 136.14,-227.82"/>
<text text-anchor="middle" x="91.01" y="-210.52" font-family="Times,serif" font-size="14.00">p</text>
<text text-anchor="middle" x="91.01" y="-194.02" font-family="Times,serif" font-size="14.00">~</text>
<text text-anchor="middle" x="91.01" y="-177.52" font-family="Times,serif" font-size="14.00">Deterministic</text>
</g>
<!-- beta_oc&#45;&gt;p -->
<g id="edge1" class="edge">
<title>beta_oc&#45;&gt;p</title>
<path fill="none" stroke="black" d="M58.5,-267.31C63,-258 67.86,-247.95 72.42,-238.53"/>
<polygon fill="black" stroke="black" points="75.53,-240.12 76.74,-229.59 69.23,-237.07 75.53,-240.12"/>
</g>
<!-- beta_ic -->
<g id="node2" class="node">
<title>beta_ic</title>
<ellipse fill="none" stroke="black" cx="141.01" cy="-304.48" rx="41.01" ry="40.66"/>
<text text-anchor="middle" x="141.01" y="-315.93" font-family="Times,serif" font-size="14.00">beta_ic</text>
<text text-anchor="middle" x="141.01" y="-299.43" font-family="Times,serif" font-size="14.00">~</text>
<text text-anchor="middle" x="141.01" y="-282.93" font-family="Times,serif" font-size="14.00">Normal</text>
</g>
<!-- beta_ic&#45;&gt;p -->
<g id="edge2" class="edge">
<title>beta_ic&#45;&gt;p</title>
<path fill="none" stroke="black" d="M123.52,-267.31C119.02,-258 114.16,-247.95 109.61,-238.53"/>
<polygon fill="black" stroke="black" points="112.79,-237.07 105.29,-229.59 106.49,-240.12 112.79,-237.07"/>
</g>
<!-- y_cat -->
<g id="node4" class="node">
<title>y_cat</title>
<ellipse fill="lightgrey" stroke="black" cx="91.01" cy="-81.16" rx="55.33" ry="40.66"/>
<text text-anchor="middle" x="91.01" y="-92.61" font-family="Times,serif" font-size="14.00">y_cat</text>
<text text-anchor="middle" x="91.01" y="-76.11" font-family="Times,serif" font-size="14.00">~</text>
<text text-anchor="middle" x="91.01" y="-59.61" font-family="Times,serif" font-size="14.00">Categorical</text>
</g>
<!-- p&#45;&gt;y_cat -->
<g id="edge3" class="edge">
<title>p&#45;&gt;y_cat</title>
<path fill="none" stroke="black" d="M91.01,-170.01C91.01,-159.03 91.01,-146.08 91.01,-133.55"/>
<polygon fill="black" stroke="black" points="94.51,-133.74 91.01,-123.74 87.51,-133.74 94.51,-133.74"/>
</g>
</g>
</svg>
