<?xml version="1.0" encoding="UTF-8" standalone="no"?>
<!DOCTYPE svg PUBLIC "-//W3C//DTD SVG 1.1//EN"
 "http://www.w3.org/Graphics/SVG/1.1/DTD/svg11.dtd">
<!-- Generated by graphviz version 11.0.0 (20240428.1522)
 -->
<!-- Pages: 1 -->
<svg width="320pt" height="382pt"
 viewBox="0.00 0.00 320.01 381.63" xmlns="http://www.w3.org/2000/svg" xmlns:xlink="http://www.w3.org/1999/xlink">
<g id="graph0" class="graph" transform="scale(1 1) rotate(0) translate(4 377.63)">
<polygon fill="white" stroke="none" points="-4,4 -4,-377.63 316.01,-377.63 316.01,4 -4,4"/>
<g id="clust1" class="cluster">
<title>clusteralts_intercepts (4)</title>
<path fill="none" stroke="black" d="M203.01,-243.82C203.01,-243.82 292.01,-243.82 292.01,-243.82 298.01,-243.82 304.01,-249.82 304.01,-255.82 304.01,-255.82 304.01,-353.63 304.01,-353.63 304.01,-359.63 298.01,-365.63 292.01,-365.63 292.01,-365.63 203.01,-365.63 203.01,-365.63 197.01,-365.63 191.01,-359.63 191.01,-353.63 191.01,-353.63 191.01,-255.82 191.01,-255.82 191.01,-249.82 197.01,-243.82 203.01,-243.82"/>
<text text-anchor="middle" x="247.26" y="-251.02" font-family="Times,serif" font-size="14.00">alts_intercepts (4)</text>
</g>
<g id="clust2" class="cluster">
<title>clusterobs (900) x alts_probs (5)</title>
<path fill="none" stroke="black" d="M95.01,-137.82C95.01,-137.82 228.01,-137.82 228.01,-137.82 234.01,-137.82 240.01,-143.82 240.01,-149.82 240.01,-149.82 240.01,-223.82 240.01,-223.82 240.01,-229.82 234.01,-235.82 228.01,-235.82 228.01,-235.82 95.01,-235.82 95.01,-235.82 89.01,-235.82 83.01,-229.82 83.01,-223.82 83.01,-223.82 83.01,-149.82 83.01,-149.82 83.01,-143.82 89.01,-137.82 95.01,-137.82"/>
<text text-anchor="middle" x="161.51" y="-145.02" font-family="Times,serif" font-size="14.00">obs (900) x alts_probs (5)</text>
</g>
<g id="clust3" class="cluster">
<title>clusterobs (900)</title>
<path fill="none" stroke="black" d="M90.01,-8C90.01,-8 192.01,-8 192.01,-8 198.01,-8 204.01,-14 204.01,-20 204.01,-20 204.01,-117.82 204.01,-117.82 204.01,-123.82 198.01,-129.82 192.01,-129.82 192.01,-129.82 90.01,-129.82 90.01,-129.82 84.01,-129.82 78.01,-123.82 78.01,-117.82 78.01,-117.82 78.01,-20 78.01,-20 78.01,-14 84.01,-8 90.01,-8"/>
<text text-anchor="middle" x="170.14" y="-15.2" font-family="Times,serif" font-size="14.00">obs (900)</text>
</g>
<!-- beta_oc -->
<g id="node1" class="node">
<title>beta_oc</title>
<ellipse fill="none" stroke="black" cx="41.01" cy="-316.98" rx="41.01" ry="40.66"/>
<text text-anchor="middle" x="41.01" y="-328.43" font-family="Times,serif" font-size="14.00">beta_oc</text>
<text text-anchor="middle" x="41.01" y="-311.93" font-family="Times,serif" font-size="14.00">~</text>
<text text-anchor="middle" x="41.01" y="-295.43" font-family="Times,serif" font-size="14.00">Normal</text>
</g>
<!-- p -->
<g id="node4" class="node">
<title>p</title>
<polygon fill="none" stroke="black" points="186.14,-227.82 95.89,-227.82 95.89,-170.32 186.14,-170.32 186.14,-227.82"/>
<text text-anchor="middle" x="141.01" y="-210.52" font-family="Times,serif" font-size="14.00">p</text>
<text text-anchor="middle" x="141.01" y="-194.02" font-family="Times,serif" font-size="14.00">~</text>
<text text-anchor="middle" x="141.01" y="-177.52" font-family="Times,serif" font-size="14.00">Deterministic</text>
</g>
<!-- beta_oc&#45;&gt;p -->
<g id="edge1" class="edge">
<title>beta_oc&#45;&gt;p</title>
<path fill="none" stroke="black" d="M62.28,-281.64C70.62,-269.22 80.66,-255.41 91.01,-243.82 93.39,-241.15 95.93,-238.49 98.55,-235.87"/>
<polygon fill="black" stroke="black" points="100.7,-238.66 105.5,-229.22 95.86,-233.6 100.7,-238.66"/>
</g>
<!-- beta_ic -->
<g id="node2" class="node">
<title>beta_ic</title>
<ellipse fill="none" stroke="black" cx="141.01" cy="-316.98" rx="41.01" ry="40.66"/>
<text text-anchor="middle" x="141.01" y="-328.43" font-family="Times,serif" font-size="14.00">beta_ic</text>
<text text-anchor="middle" x="141.01" y="-311.93" font-family="Times,serif" font-size="14.00">~</text>
<text text-anchor="middle" x="141.01" y="-295.43" font-family="Times,serif" font-size="14.00">Normal</text>
</g>
<!-- beta_ic&#45;&gt;p -->
<g id="edge2" class="edge">
<title>beta_ic&#45;&gt;p</title>
<path fill="none" stroke="black" d="M141.01,-276.09C141.01,-264.2 141.01,-251.19 141.01,-239.34"/>
<polygon fill="black" stroke="black" points="144.51,-239.48 141.01,-229.48 137.51,-239.48 144.51,-239.48"/>
</g>
<!-- alpha -->
<g id="node3" class="node">
<title>alpha</title>
<ellipse fill="none" stroke="black" cx="241.01" cy="-316.98" rx="41.01" ry="40.66"/>
<text text-anchor="middle" x="241.01" y="-328.43" font-family="Times,serif" font-size="14.00">alpha</text>
<text text-anchor="middle" x="241.01" y="-311.93" font-family="Times,serif" font-size="14.00">~</text>
<text text-anchor="middle" x="241.01" y="-295.43" font-family="Times,serif" font-size="14.00">Normal</text>
</g>
<!-- alpha&#45;&gt;p -->
<g id="edge3" class="edge">
<title>alpha&#45;&gt;p</title>
<path fill="none" stroke="black" d="M219.74,-281.64C211.41,-269.22 201.37,-255.41 191.01,-243.82 188.63,-241.15 186.09,-238.49 183.47,-235.87"/>
<polygon fill="black" stroke="black" points="186.17,-233.6 176.52,-229.22 181.33,-238.66 186.17,-233.6"/>
</g>
<!-- y_cat -->
<g id="node5" class="node">
<title>y_cat</title>
<ellipse fill="lightgrey" stroke="black" cx="141.01" cy="-81.16" rx="55.33" ry="40.66"/>
<text text-anchor="middle" x="141.01" y="-92.61" font-family="Times,serif" font-size="14.00">y_cat</text>
<text text-anchor="middle" x="141.01" y="-76.11" font-family="Times,serif" font-size="14.00">~</text>
<text text-anchor="middle" x="141.01" y="-59.61" font-family="Times,serif" font-size="14.00">Categorical</text>
</g>
<!-- p&#45;&gt;y_cat -->
<g id="edge4" class="edge">
<title>p&#45;&gt;y_cat</title>
<path fill="none" stroke="black" d="M141.01,-170.01C141.01,-159.03 141.01,-146.08 141.01,-133.55"/>
<polygon fill="black" stroke="black" points="144.51,-133.74 141.01,-123.74 137.51,-133.74 144.51,-133.74"/>
</g>
</g>
</svg>
