<?xml version="1.0" encoding="UTF-8" standalone="no"?>
<!DOCTYPE svg PUBLIC "-//W3C//DTD SVG 1.1//EN"
 "http://www.w3.org/Graphics/SVG/1.1/DTD/svg11.dtd">
<!-- Generated by graphviz version 11.0.0 (20240428.1522)
 -->
<!-- Pages: 1 -->
<svg width="446pt" height="382pt"
 viewBox="0.00 0.00 446.01 381.63" xmlns="http://www.w3.org/2000/svg" xmlns:xlink="http://www.w3.org/1999/xlink">
<g id="graph0" class="graph" transform="scale(1 1) rotate(0) translate(4 377.63)">
<polygon fill="white" stroke="none" points="-4,4 -4,-377.63 442.01,-377.63 442.01,4 -4,4"/>
<g id="clust1" class="cluster">
<title>clusteralts_intercepts (4)</title>
<path fill="none" stroke="black" d="M204.01,-243.82C204.01,-243.82 418.01,-243.82 418.01,-243.82 424.01,-243.82 430.01,-249.82 430.01,-255.82 430.01,-255.82 430.01,-353.63 430.01,-353.63 430.01,-359.63 424.01,-365.63 418.01,-365.63 418.01,-365.63 204.01,-365.63 204.01,-365.63 198.01,-365.63 192.01,-359.63 192.01,-353.63 192.01,-353.63 192.01,-255.82 192.01,-255.82 192.01,-249.82 198.01,-243.82 204.01,-243.82"/>
<text text-anchor="middle" x="373.26" y="-251.02" font-family="Times,serif" font-size="14.00">alts_intercepts (4)</text>
</g>
<g id="clust2" class="cluster">
<title>clusterobs (900) x alts_probs (5)</title>
<path fill="none" stroke="black" d="M152.01,-137.82C152.01,-137.82 285.01,-137.82 285.01,-137.82 291.01,-137.82 297.01,-143.82 297.01,-149.82 297.01,-149.82 297.01,-223.82 297.01,-223.82 297.01,-229.82 291.01,-235.82 285.01,-235.82 285.01,-235.82 152.01,-235.82 152.01,-235.82 146.01,-235.82 140.01,-229.82 140.01,-223.82 140.01,-223.82 140.01,-149.82 140.01,-149.82 140.01,-143.82 146.01,-137.82 152.01,-137.82"/>
<text text-anchor="middle" x="218.51" y="-145.02" font-family="Times,serif" font-size="14.00">obs (900) x alts_probs (5)</text>
</g>
<g id="clust3" class="cluster">
<title>clusterobs (900)</title>
<path fill="none" stroke="black" d="M147.01,-8C147.01,-8 249.01,-8 249.01,-8 255.01,-8 261.01,-14 261.01,-20 261.01,-20 261.01,-117.82 261.01,-117.82 261.01,-123.82 255.01,-129.82 249.01,-129.82 249.01,-129.82 147.01,-129.82 147.01,-129.82 141.01,-129.82 135.01,-123.82 135.01,-117.82 135.01,-117.82 135.01,-20 135.01,-20 135.01,-14 141.01,-8 147.01,-8"/>
<text text-anchor="middle" x="227.14" y="-15.2" font-family="Times,serif" font-size="14.00">obs (900)</text>
</g>
<!-- beta_oc -->
<g id="node1" class="node">
<title>beta_oc</title>
<ellipse fill="none" stroke="black" cx="41.01" cy="-316.98" rx="41.01" ry="40.66"/>
<text text-anchor="middle" x="41.01" y="-328.43" font-family="Times,serif" font-size="14.00">beta_oc</text>
<text text-anchor="middle" x="41.01" y="-311.93" font-family="Times,serif" font-size="14.00">~</text>
<text text-anchor="middle" x="41.01" y="-295.43" font-family="Times,serif" font-size="14.00">Normal</text>
</g>
<!-- p -->
<g id="node5" class="node">
<title>p</title>
<polygon fill="none" stroke="black" points="243.14,-227.82 152.89,-227.82 152.89,-170.32 243.14,-170.32 243.14,-227.82"/>
<text text-anchor="middle" x="198.01" y="-210.52" font-family="Times,serif" font-size="14.00">p</text>
<text text-anchor="middle" x="198.01" y="-194.02" font-family="Times,serif" font-size="14.00">~</text>
<text text-anchor="middle" x="198.01" y="-177.52" font-family="Times,serif" font-size="14.00">Deterministic</text>
</g>
<!-- beta_oc&#45;&gt;p -->
<g id="edge1" class="edge">
<title>beta_oc&#45;&gt;p</title>
<path fill="none" stroke="black" d="M59.89,-280.36C68.08,-267.51 78.65,-253.74 91.01,-243.82 105.85,-231.9 124.38,-222.81 141.82,-216.09"/>
<polygon fill="black" stroke="black" points="142.88,-219.43 151.08,-212.72 140.49,-212.85 142.88,-219.43"/>
</g>
<!-- beta_ic -->
<g id="node2" class="node">
<title>beta_ic</title>
<ellipse fill="none" stroke="black" cx="141.01" cy="-316.98" rx="41.01" ry="40.66"/>
<text text-anchor="middle" x="141.01" y="-328.43" font-family="Times,serif" font-size="14.00">beta_ic</text>
<text text-anchor="middle" x="141.01" y="-311.93" font-family="Times,serif" font-size="14.00">~</text>
<text text-anchor="middle" x="141.01" y="-295.43" font-family="Times,serif" font-size="14.00">Normal</text>
</g>
<!-- beta_ic&#45;&gt;p -->
<g id="edge3" class="edge">
<title>beta_ic&#45;&gt;p</title>
<path fill="none" stroke="black" d="M158.73,-279.94C165.3,-266.59 172.75,-251.43 179.39,-237.93"/>
<polygon fill="black" stroke="black" points="182.34,-239.86 183.62,-229.34 176.06,-236.77 182.34,-239.86"/>
</g>
<!-- beta_income -->
<g id="node3" class="node">
<title>beta_income</title>
<ellipse fill="none" stroke="black" cx="261.01" cy="-316.98" rx="60.63" ry="40.66"/>
<text text-anchor="middle" x="261.01" y="-328.43" font-family="Times,serif" font-size="14.00">beta_income</text>
<text text-anchor="middle" x="261.01" y="-311.93" font-family="Times,serif" font-size="14.00">~</text>
<text text-anchor="middle" x="261.01" y="-295.43" font-family="Times,serif" font-size="14.00">Normal</text>
</g>
<!-- beta_income&#45;&gt;p -->
<g id="edge2" class="edge">
<title>beta_income&#45;&gt;p</title>
<path fill="none" stroke="black" d="M240.56,-278.34C233.53,-265.41 225.66,-250.93 218.61,-237.97"/>
<polygon fill="black" stroke="black" points="221.75,-236.41 213.9,-229.29 215.6,-239.75 221.75,-236.41"/>
</g>
<!-- alpha -->
<g id="node4" class="node">
<title>alpha</title>
<ellipse fill="none" stroke="black" cx="381.01" cy="-316.98" rx="41.01" ry="40.66"/>
<text text-anchor="middle" x="381.01" y="-328.43" font-family="Times,serif" font-size="14.00">alpha</text>
<text text-anchor="middle" x="381.01" y="-311.93" font-family="Times,serif" font-size="14.00">~</text>
<text text-anchor="middle" x="381.01" y="-295.43" font-family="Times,serif" font-size="14.00">Normal</text>
</g>
<!-- alpha&#45;&gt;p -->
<g id="edge4" class="edge">
<title>alpha&#45;&gt;p</title>
<path fill="none" stroke="black" d="M362.73,-280.27C354.55,-267.25 343.84,-253.39 331.01,-243.82 308.7,-227.16 279.73,-216.65 254.52,-210.12"/>
<polygon fill="black" stroke="black" points="255.63,-206.79 245.08,-207.83 253.98,-213.59 255.63,-206.79"/>
</g>
<!-- y_cat -->
<g id="node6" class="node">
<title>y_cat</title>
<ellipse fill="lightgrey" stroke="black" cx="198.01" cy="-81.16" rx="55.33" ry="40.66"/>
<text text-anchor="middle" x="198.01" y="-92.61" font-family="Times,serif" font-size="14.00">y_cat</text>
<text text-anchor="middle" x="198.01" y="-76.11" font-family="Times,serif" font-size="14.00">~</text>
<text text-anchor="middle" x="198.01" y="-59.61" font-family="Times,serif" font-size="14.00">Categorical</text>
</g>
<!-- p&#45;&gt;y_cat -->
<g id="edge5" class="edge">
<title>p&#45;&gt;y_cat</title>
<path fill="none" stroke="black" d="M198.01,-170.01C198.01,-159.03 198.01,-146.08 198.01,-133.55"/>
<polygon fill="black" stroke="black" points="201.51,-133.74 198.01,-123.74 194.51,-133.74 201.51,-133.74"/>
</g>
</g>
</svg>
