<?xml version="1.0" encoding="UTF-8" standalone="no"?>
<!DOCTYPE svg PUBLIC "-//W3C//DTD SVG 1.1//EN"
 "http://www.w3.org/Graphics/SVG/1.1/DTD/svg11.dtd">
<!-- Generated by graphviz version 11.0.0 (20240428.1522)
 -->
<!-- Pages: 1 -->
<svg width="411pt" height="405pt"
 viewBox="0.00 0.00 411.45 405.45" xmlns="http://www.w3.org/2000/svg" xmlns:xlink="http://www.w3.org/1999/xlink">
<g id="graph0" class="graph" transform="scale(1 1) rotate(0) translate(4 401.45)">
<polygon fill="white" stroke="none" points="-4,4 -4,-401.45 407.45,-401.45 407.45,4 -4,4"/>
<g id="clust1" class="cluster">
<title>clusterobs (500) x p_factors (5)</title>
<path fill="none" stroke="black" d="M93.45,-137.82C93.45,-137.82 220.45,-137.82 220.45,-137.82 226.45,-137.82 232.45,-143.82 232.45,-149.82 232.45,-149.82 232.45,-247.63 232.45,-247.63 232.45,-253.63 226.45,-259.63 220.45,-259.63 220.45,-259.63 93.45,-259.63 93.45,-259.63 87.45,-259.63 81.45,-253.63 81.45,-247.63 81.45,-247.63 81.45,-149.82 81.45,-149.82 81.45,-143.82 87.45,-137.82 93.45,-137.82"/>
<text text-anchor="middle" x="156.58" y="-145.02" font-family="Times,serif" font-size="14.00">obs (500) x p_factors (5)</text>
</g>
<g id="clust2" class="cluster">
<title>cluster4</title>
<path fill="none" stroke="black" d="M241.45,-267.63C241.45,-267.63 383.45,-267.63 383.45,-267.63 389.45,-267.63 395.45,-273.63 395.45,-279.63 395.45,-279.63 395.45,-377.45 395.45,-377.45 395.45,-383.45 389.45,-389.45 383.45,-389.45 383.45,-389.45 241.45,-389.45 241.45,-389.45 235.45,-389.45 229.45,-383.45 229.45,-377.45 229.45,-377.45 229.45,-279.63 229.45,-279.63 229.45,-273.63 235.45,-267.63 241.45,-267.63"/>
<text text-anchor="middle" x="384.08" y="-274.83" font-family="Times,serif" font-size="14.00">4</text>
</g>
<g id="clust3" class="cluster">
<title>cluster5</title>
<path fill="none" stroke="black" d="M262.45,-149.73C262.45,-149.73 356.45,-149.73 356.45,-149.73 362.45,-149.73 368.45,-155.73 368.45,-161.73 368.45,-161.73 368.45,-235.73 368.45,-235.73 368.45,-241.73 362.45,-247.73 356.45,-247.73 356.45,-247.73 262.45,-247.73 262.45,-247.73 256.45,-247.73 250.45,-241.73 250.45,-235.73 250.45,-235.73 250.45,-161.73 250.45,-161.73 250.45,-155.73 256.45,-149.73 262.45,-149.73"/>
<text text-anchor="middle" x="357.08" y="-156.93" font-family="Times,serif" font-size="14.00">5</text>
</g>
<g id="clust4" class="cluster">
<title>clusterobs (500)</title>
<path fill="none" stroke="black" d="M125.45,-8C125.45,-8 356.45,-8 356.45,-8 362.45,-8 368.45,-14 368.45,-20 368.45,-20 368.45,-117.82 368.45,-117.82 368.45,-123.82 362.45,-129.82 356.45,-129.82 356.45,-129.82 125.45,-129.82 125.45,-129.82 119.45,-129.82 113.45,-123.82 113.45,-117.82 113.45,-117.82 113.45,-20 113.45,-20 113.45,-14 119.45,-8 125.45,-8"/>
<text text-anchor="middle" x="334.58" y="-15.2" font-family="Times,serif" font-size="14.00">obs (500)</text>
</g>
<!-- sigma_β_p -->
<g id="node1" class="node">
<title>sigma_β_p</title>
<ellipse fill="none" stroke="black" cx="57.45" cy="-340.79" rx="57.45" ry="40.66"/>
<text text-anchor="middle" x="57.45" y="-352.24" font-family="Times,serif" font-size="14.00">sigma_β_p</text>
<text text-anchor="middle" x="57.45" y="-335.74" font-family="Times,serif" font-size="14.00">~</text>
<text text-anchor="middle" x="57.45" y="-319.24" font-family="Times,serif" font-size="14.00">Exponential</text>
</g>
<!-- beta_pf -->
<g id="node3" class="node">
<title>beta_pf</title>
<ellipse fill="none" stroke="black" cx="176.45" cy="-210.98" rx="41.01" ry="40.66"/>
<text text-anchor="middle" x="176.45" y="-222.43" font-family="Times,serif" font-size="14.00">beta_pf</text>
<text text-anchor="middle" x="176.45" y="-205.93" font-family="Times,serif" font-size="14.00">~</text>
<text text-anchor="middle" x="176.45" y="-189.43" font-family="Times,serif" font-size="14.00">Normal</text>
</g>
<!-- sigma_β_p&#45;&gt;beta_pf -->
<g id="edge1" class="edge">
<title>sigma_β_p&#45;&gt;beta_pf</title>
<path fill="none" stroke="black" d="M88.45,-306.36C99.77,-294.17 112.68,-280.27 124.45,-267.63 129.91,-261.78 135.68,-255.58 141.33,-249.54"/>
<polygon fill="black" stroke="black" points="143.61,-252.23 147.88,-242.53 138.49,-247.45 143.61,-252.23"/>
</g>
<!-- mu_β_p -->
<g id="node2" class="node">
<title>mu_β_p</title>
<ellipse fill="none" stroke="black" cx="176.45" cy="-340.79" rx="43.13" ry="40.66"/>
<text text-anchor="middle" x="176.45" y="-352.24" font-family="Times,serif" font-size="14.00">mu_β_p</text>
<text text-anchor="middle" x="176.45" y="-335.74" font-family="Times,serif" font-size="14.00">~</text>
<text text-anchor="middle" x="176.45" y="-319.24" font-family="Times,serif" font-size="14.00">Normal</text>
</g>
<!-- mu_β_p&#45;&gt;beta_pf -->
<g id="edge2" class="edge">
<title>mu_β_p&#45;&gt;beta_pf</title>
<path fill="none" stroke="black" d="M176.45,-299.7C176.45,-288.16 176.45,-275.41 176.45,-263.29"/>
<polygon fill="black" stroke="black" points="179.95,-263.44 176.45,-253.44 172.95,-263.44 179.95,-263.44"/>
</g>
<!-- product -->
<g id="node6" class="node">
<title>product</title>
<ellipse fill="lightgrey" stroke="black" cx="176.45" cy="-81.16" rx="55.33" ry="40.66"/>
<text text-anchor="middle" x="176.45" y="-92.61" font-family="Times,serif" font-size="14.00">product</text>
<text text-anchor="middle" x="176.45" y="-76.11" font-family="Times,serif" font-size="14.00">~</text>
<text text-anchor="middle" x="176.45" y="-59.61" font-family="Times,serif" font-size="14.00">Categorical</text>
</g>
<!-- beta_pf&#45;&gt;product -->
<g id="edge4" class="edge">
<title>beta_pf&#45;&gt;product</title>
<path fill="none" stroke="black" d="M176.45,-169.88C176.45,-158.34 176.45,-145.6 176.45,-133.48"/>
<polygon fill="black" stroke="black" points="179.95,-133.62 176.45,-123.62 172.95,-133.62 179.95,-133.62"/>
</g>
<!-- bin -->
<g id="node7" class="node">
<title>bin</title>
<ellipse fill="lightgrey" stroke="black" cx="305.45" cy="-81.16" rx="55.33" ry="40.66"/>
<text text-anchor="middle" x="305.45" y="-92.61" font-family="Times,serif" font-size="14.00">bin</text>
<text text-anchor="middle" x="305.45" y="-76.11" font-family="Times,serif" font-size="14.00">~</text>
<text text-anchor="middle" x="305.45" y="-59.61" font-family="Times,serif" font-size="14.00">Categorical</text>
</g>
<!-- beta_pf&#45;&gt;bin -->
<g id="edge5" class="edge">
<title>beta_pf&#45;&gt;bin</title>
<path fill="none" stroke="black" d="M204.09,-180.9C216.85,-167.63 232.29,-151.79 246.45,-137.82 251.84,-132.5 257.57,-126.97 263.25,-121.54"/>
<polygon fill="black" stroke="black" points="265.57,-124.16 270.41,-114.73 260.75,-119.08 265.57,-124.16"/>
</g>
<!-- latent_binwidths -->
<g id="node4" class="node">
<title>latent_binwidths</title>
<ellipse fill="none" stroke="black" cx="312.45" cy="-340.79" rx="74.95" ry="40.66"/>
<text text-anchor="middle" x="312.45" y="-352.24" font-family="Times,serif" font-size="14.00">latent_binwidths</text>
<text text-anchor="middle" x="312.45" y="-335.74" font-family="Times,serif" font-size="14.00">~</text>
<text text-anchor="middle" x="312.45" y="-319.24" font-family="Times,serif" font-size="14.00">Dirichlet</text>
</g>
<!-- latent_cutpoints -->
<g id="node5" class="node">
<title>latent_cutpoints</title>
<polygon fill="none" stroke="black" points="360.58,-239.73 258.33,-239.73 258.33,-182.23 360.58,-182.23 360.58,-239.73"/>
<text text-anchor="middle" x="309.45" y="-222.43" font-family="Times,serif" font-size="14.00">latent_cutpoints</text>
<text text-anchor="middle" x="309.45" y="-205.93" font-family="Times,serif" font-size="14.00">~</text>
<text text-anchor="middle" x="309.45" y="-189.43" font-family="Times,serif" font-size="14.00">Deterministic</text>
</g>
<!-- latent_binwidths&#45;&gt;latent_cutpoints -->
<g id="edge3" class="edge">
<title>latent_binwidths&#45;&gt;latent_cutpoints</title>
<path fill="none" stroke="black" d="M311.51,-299.7C311.15,-284.3 310.74,-266.74 310.38,-251.4"/>
<polygon fill="black" stroke="black" points="313.88,-251.61 310.15,-241.69 306.89,-251.77 313.88,-251.61"/>
</g>
<!-- latent_cutpoints&#45;&gt;bin -->
<g id="edge6" class="edge">
<title>latent_cutpoints&#45;&gt;bin</title>
<path fill="none" stroke="black" d="M308.57,-181.93C308.13,-167.72 307.58,-150.01 307.06,-133.47"/>
<polygon fill="black" stroke="black" points="310.57,-133.67 306.75,-123.78 303.57,-133.89 310.57,-133.67"/>
</g>
</g>
</svg>
